<svg width="160" height="160" viewBox="0 0 160 160" xmlns="http://www.w3.org/2000/svg">
  <g fill="none" stroke="#8b6f4e" stroke-width="4.5" stroke-linecap="round" stroke-linejoin="round">
    <!-- cake body -->
    <path d="M42 118V72L118 70L120 118Z"/>
    <path d="M42 72L118 70"/>

    <!-- cream -->
    <path d="M83 48c6-7 20-7 26 0c4 4 4 10 0 14c-3 4-8 5-13 5H84c-8 0-14-4-14-10c0-5 5-9 13-9z"/>

    <!-- cherry -->
    <circle cx="72" cy="61" r="9"/>
    <path d="M72 52c2-8 5-15 10-20"/>

    <!-- cake top line -->
    <path d="M42 72c20-3 47-4 76-2"/>

    <!-- cream layers -->
    <path d="M48 88H105"/>
    <path d="M48 101H105"/>

    <!-- bottom line -->
    <path d="M44 118c18 2 50 2 74 0"/>
  </g>
</svg>